# xmcd
#
# Track frame offsets: 
#        150
#        23040
#        44307
#        63770
#        84934
#        104947
#        123135
#        143318
#        161036
#        181011
#        199659
#
# Disc length: 3015 seconds
#
# Revision: 1
# Processed by: cddbd v1.5.2PL0 Copyright (c) Steve Scherf et al.
# Submitted via: ExactAudioCopy v0.99pb4
#
DISCID=830bc50b
DTITLE=The Rippingtons - 20th Anniversary
DYEAR=2006
DGENRE=Jazz
TTITLE0=City of Angels
TTITLE1=Celebrate
TTITLE2=Costa del Sol
TTITLE3=Bingo Jingo
TTITLE4=Eternity
TTITLE5=Six Four
TTITLE6=Rainbow
TTITLE7=Twenty
TTITLE8=Anything
TTITLE9=A Kiss Under the Moonlight
TTITLE10=A 20th Anniversary Bonus
EXTD=YEAR: 2006
EXTT0=
EXTT1=
EXTT2=
EXTT3=
EXTT4=
EXTT5=
EXTT6=
EXTT7=
EXTT8=
EXTT9=
EXTT10=
PLAYORDER=
